<mxfile host="app.diagrams.net" modified="2021-12-01T11:12:21.117Z" agent="5.0 (Macintosh; Intel Mac OS X 10_15_7) AppleWebKit/605.1.15 (KHTML, like Gecko) Version/15.1 Safari/605.1.15" etag="1CdUjRnWuY3ee84zrF5X" version="15.8.6" type="github">
  <diagram id="C5RBs43oDa-KdzZeNtuy" name="Page-1">
    <mxGraphModel dx="577" dy="458" grid="1" gridSize="10" guides="1" tooltips="1" connect="1" arrows="1" fold="1" page="1" pageScale="1" pageWidth="3300" pageHeight="2339" math="0" shadow="0">
      <root>
        <mxCell id="WIyWlLk6GJQsqaUBKTNV-0" />
        <mxCell id="WIyWlLk6GJQsqaUBKTNV-1" parent="WIyWlLk6GJQsqaUBKTNV-0" />
        <mxCell id="cu65qjogsTO9x5spODUh-0" value="" style="rounded=0;whiteSpace=wrap;html=1;fillColor=#CDA2BE;" parent="WIyWlLk6GJQsqaUBKTNV-1" vertex="1">
          <mxGeometry x="1310" y="190" width="1260" height="430" as="geometry" />
        </mxCell>
        <mxCell id="cu65qjogsTO9x5spODUh-1" value="VictimFactory" style="swimlane;fontStyle=2;align=center;verticalAlign=top;childLayout=stackLayout;horizontal=1;startSize=26;horizontalStack=0;resizeParent=1;resizeLast=0;collapsible=1;marginBottom=0;rounded=0;shadow=0;strokeWidth=1;fillColor=#CDA2BE;" parent="WIyWlLk6GJQsqaUBKTNV-1" vertex="1">
          <mxGeometry x="1570" y="280" width="160" height="80" as="geometry">
            <mxRectangle x="230" y="140" width="160" height="26" as="alternateBounds" />
          </mxGeometry>
        </mxCell>
        <mxCell id="cu65qjogsTO9x5spODUh-2" value="" style="line;html=1;strokeWidth=1;align=left;verticalAlign=middle;spacingTop=-1;spacingLeft=3;spacingRight=3;rotatable=0;labelPosition=right;points=[];portConstraint=eastwest;" parent="cu65qjogsTO9x5spODUh-1" vertex="1">
          <mxGeometry y="26" width="160" height="8" as="geometry" />
        </mxCell>
        <mxCell id="cu65qjogsTO9x5spODUh-3" value="+ createVictim()" style="text;align=left;verticalAlign=top;spacingLeft=4;spacingRight=4;overflow=hidden;rotatable=0;points=[[0,0.5],[1,0.5]];portConstraint=eastwest;" parent="cu65qjogsTO9x5spODUh-1" vertex="1">
          <mxGeometry y="34" width="160" height="26" as="geometry" />
        </mxCell>
        <mxCell id="cu65qjogsTO9x5spODUh-4" value="SSHBruteForceVictim" style="swimlane;fontStyle=0;align=center;verticalAlign=top;childLayout=stackLayout;horizontal=1;startSize=26;horizontalStack=0;resizeParent=1;resizeLast=0;collapsible=1;marginBottom=0;rounded=0;shadow=0;strokeWidth=1;fillColor=#CDA2BE;" parent="WIyWlLk6GJQsqaUBKTNV-1" vertex="1">
          <mxGeometry x="1320" y="520" width="160" height="70" as="geometry">
            <mxRectangle x="130" y="380" width="160" height="26" as="alternateBounds" />
          </mxGeometry>
        </mxCell>
        <mxCell id="cu65qjogsTO9x5spODUh-5" value="" style="line;html=1;strokeWidth=1;align=left;verticalAlign=middle;spacingTop=-1;spacingLeft=3;spacingRight=3;rotatable=0;labelPosition=right;points=[];portConstraint=eastwest;" parent="cu65qjogsTO9x5spODUh-4" vertex="1">
          <mxGeometry y="26" width="160" height="8" as="geometry" />
        </mxCell>
        <mxCell id="cu65qjogsTO9x5spODUh-6" value="+ createSSHVictim()" style="text;align=left;verticalAlign=top;spacingLeft=4;spacingRight=4;overflow=hidden;rotatable=0;points=[[0,0.5],[1,0.5]];portConstraint=eastwest;fontStyle=0" parent="cu65qjogsTO9x5spODUh-4" vertex="1">
          <mxGeometry y="34" width="160" height="26" as="geometry" />
        </mxCell>
        <mxCell id="cu65qjogsTO9x5spODUh-7" value="" style="endArrow=block;endSize=10;endFill=0;shadow=0;strokeWidth=1;rounded=0;edgeStyle=elbowEdgeStyle;elbow=vertical;fillColor=#CDA2BE;" parent="WIyWlLk6GJQsqaUBKTNV-1" source="cu65qjogsTO9x5spODUh-4" target="cu65qjogsTO9x5spODUh-1" edge="1">
          <mxGeometry width="160" relative="1" as="geometry">
            <mxPoint x="1550" y="363" as="sourcePoint" />
            <mxPoint x="1550" y="363" as="targetPoint" />
          </mxGeometry>
        </mxCell>
        <mxCell id="cu65qjogsTO9x5spODUh-8" value="MIMVictim" style="swimlane;fontStyle=0;align=center;verticalAlign=top;childLayout=stackLayout;horizontal=1;startSize=26;horizontalStack=0;resizeParent=1;resizeLast=0;collapsible=1;marginBottom=0;rounded=0;shadow=0;strokeWidth=1;fillColor=#CDA2BE;" parent="WIyWlLk6GJQsqaUBKTNV-1" vertex="1">
          <mxGeometry x="1500" y="520" width="170" height="70" as="geometry">
            <mxRectangle x="340" y="380" width="170" height="26" as="alternateBounds" />
          </mxGeometry>
        </mxCell>
        <mxCell id="cu65qjogsTO9x5spODUh-9" value="" style="line;html=1;strokeWidth=1;align=left;verticalAlign=middle;spacingTop=-1;spacingLeft=3;spacingRight=3;rotatable=0;labelPosition=right;points=[];portConstraint=eastwest;" parent="cu65qjogsTO9x5spODUh-8" vertex="1">
          <mxGeometry y="26" width="170" height="8" as="geometry" />
        </mxCell>
        <mxCell id="cu65qjogsTO9x5spODUh-10" value="+ createManInMiddleVictim()" style="text;align=left;verticalAlign=top;spacingLeft=4;spacingRight=4;overflow=hidden;rotatable=0;points=[[0,0.5],[1,0.5]];portConstraint=eastwest;fontStyle=0" parent="cu65qjogsTO9x5spODUh-8" vertex="1">
          <mxGeometry y="34" width="170" height="26" as="geometry" />
        </mxCell>
        <mxCell id="cu65qjogsTO9x5spODUh-11" value="" style="endArrow=block;endSize=10;endFill=0;shadow=0;strokeWidth=1;rounded=0;edgeStyle=elbowEdgeStyle;elbow=vertical;fillColor=#CDA2BE;" parent="WIyWlLk6GJQsqaUBKTNV-1" source="cu65qjogsTO9x5spODUh-8" target="cu65qjogsTO9x5spODUh-1" edge="1">
          <mxGeometry width="160" relative="1" as="geometry">
            <mxPoint x="1560" y="533" as="sourcePoint" />
            <mxPoint x="1660" y="431" as="targetPoint" />
          </mxGeometry>
        </mxCell>
        <mxCell id="cu65qjogsTO9x5spODUh-12" value="&lt;p style=&quot;margin: 0px ; margin-top: 4px ; text-align: center&quot;&gt;&lt;i&gt;&amp;lt;&amp;lt;Interface&amp;gt;&amp;gt;&lt;/i&gt;&lt;br&gt;&lt;/p&gt;&lt;p style=&quot;margin: 0px ; margin-top: 4px ; text-align: center&quot;&gt;&lt;i&gt;&lt;b&gt;Attacker&lt;/b&gt;&lt;/i&gt;&lt;/p&gt;&lt;hr size=&quot;1&quot;&gt;&lt;p style=&quot;margin: 0px ; margin-left: 4px&quot;&gt;+ runVictim()&lt;br&gt;&lt;/p&gt;" style="verticalAlign=top;align=left;overflow=fill;fontSize=12;fontFamily=Helvetica;html=1;fillColor=#CDA2BE;" parent="WIyWlLk6GJQsqaUBKTNV-1" vertex="1">
          <mxGeometry x="2200" y="280" width="190" height="100" as="geometry" />
        </mxCell>
        <mxCell id="cu65qjogsTO9x5spODUh-13" value="SSHBruteForce" style="html=1;fillColor=#CDA2BE;" parent="WIyWlLk6GJQsqaUBKTNV-1" vertex="1">
          <mxGeometry x="2070" y="520" width="110" height="50" as="geometry" />
        </mxCell>
        <mxCell id="cu65qjogsTO9x5spODUh-14" value="ManInMiddle" style="html=1;fillColor=#CDA2BE;" parent="WIyWlLk6GJQsqaUBKTNV-1" vertex="1">
          <mxGeometry x="2190" y="520" width="110" height="50" as="geometry" />
        </mxCell>
        <mxCell id="cu65qjogsTO9x5spODUh-15" value="XSS" style="html=1;fillColor=#CDA2BE;" parent="WIyWlLk6GJQsqaUBKTNV-1" vertex="1">
          <mxGeometry x="2310" y="520" width="110" height="50" as="geometry" />
        </mxCell>
        <mxCell id="cu65qjogsTO9x5spODUh-16" value="XSSVictim" style="swimlane;fontStyle=0;align=center;verticalAlign=top;childLayout=stackLayout;horizontal=1;startSize=26;horizontalStack=0;resizeParent=1;resizeLast=0;collapsible=1;marginBottom=0;rounded=0;shadow=0;strokeWidth=1;fillColor=#CDA2BE;" parent="WIyWlLk6GJQsqaUBKTNV-1" vertex="1">
          <mxGeometry x="1681" y="520" width="160" height="70" as="geometry">
            <mxRectangle x="340" y="380" width="170" height="26" as="alternateBounds" />
          </mxGeometry>
        </mxCell>
        <mxCell id="cu65qjogsTO9x5spODUh-17" value="" style="line;html=1;strokeWidth=1;align=left;verticalAlign=middle;spacingTop=-1;spacingLeft=3;spacingRight=3;rotatable=0;labelPosition=right;points=[];portConstraint=eastwest;" parent="cu65qjogsTO9x5spODUh-16" vertex="1">
          <mxGeometry y="26" width="160" height="8" as="geometry" />
        </mxCell>
        <mxCell id="cu65qjogsTO9x5spODUh-18" value="+ createXSSVictim()" style="text;align=left;verticalAlign=top;spacingLeft=4;spacingRight=4;overflow=hidden;rotatable=0;points=[[0,0.5],[1,0.5]];portConstraint=eastwest;fontStyle=0" parent="cu65qjogsTO9x5spODUh-16" vertex="1">
          <mxGeometry y="34" width="160" height="26" as="geometry" />
        </mxCell>
        <mxCell id="cu65qjogsTO9x5spODUh-19" value="DoS" style="html=1;fillColor=#CDA2BE;" parent="WIyWlLk6GJQsqaUBKTNV-1" vertex="1">
          <mxGeometry x="2430" y="520" width="110" height="50" as="geometry" />
        </mxCell>
        <mxCell id="cu65qjogsTO9x5spODUh-20" value="DoSVictim" style="swimlane;fontStyle=0;align=center;verticalAlign=top;childLayout=stackLayout;horizontal=1;startSize=26;horizontalStack=0;resizeParent=1;resizeLast=0;collapsible=1;marginBottom=0;rounded=0;shadow=0;strokeWidth=1;fillColor=#CDA2BE;" parent="WIyWlLk6GJQsqaUBKTNV-1" vertex="1">
          <mxGeometry x="1860" y="520" width="190" height="70" as="geometry">
            <mxRectangle x="340" y="380" width="170" height="26" as="alternateBounds" />
          </mxGeometry>
        </mxCell>
        <mxCell id="cu65qjogsTO9x5spODUh-21" value="" style="line;html=1;strokeWidth=1;align=left;verticalAlign=middle;spacingTop=-1;spacingLeft=3;spacingRight=3;rotatable=0;labelPosition=right;points=[];portConstraint=eastwest;" parent="cu65qjogsTO9x5spODUh-20" vertex="1">
          <mxGeometry y="26" width="190" height="8" as="geometry" />
        </mxCell>
        <mxCell id="cu65qjogsTO9x5spODUh-22" value="+ createDoSVictim()" style="text;align=left;verticalAlign=top;spacingLeft=4;spacingRight=4;overflow=hidden;rotatable=0;points=[[0,0.5],[1,0.5]];portConstraint=eastwest;fontStyle=0" parent="cu65qjogsTO9x5spODUh-20" vertex="1">
          <mxGeometry y="34" width="190" height="26" as="geometry" />
        </mxCell>
        <mxCell id="cu65qjogsTO9x5spODUh-23" value="" style="endArrow=block;dashed=1;endFill=0;endSize=12;html=1;rounded=0;exitX=0.5;exitY=0;exitDx=0;exitDy=0;entryX=0.5;entryY=1;entryDx=0;entryDy=0;edgeStyle=orthogonalEdgeStyle;fillColor=#CDA2BE;" parent="WIyWlLk6GJQsqaUBKTNV-1" source="cu65qjogsTO9x5spODUh-13" target="cu65qjogsTO9x5spODUh-12" edge="1">
          <mxGeometry width="160" relative="1" as="geometry">
            <mxPoint x="1850" y="510" as="sourcePoint" />
            <mxPoint x="2010" y="510" as="targetPoint" />
          </mxGeometry>
        </mxCell>
        <mxCell id="cu65qjogsTO9x5spODUh-24" value="" style="endArrow=block;dashed=1;endFill=0;endSize=12;html=1;rounded=0;entryX=0.5;entryY=1;entryDx=0;entryDy=0;edgeStyle=orthogonalEdgeStyle;fillColor=#CDA2BE;" parent="WIyWlLk6GJQsqaUBKTNV-1" source="cu65qjogsTO9x5spODUh-14" target="cu65qjogsTO9x5spODUh-12" edge="1">
          <mxGeometry width="160" relative="1" as="geometry">
            <mxPoint x="2155" y="530" as="sourcePoint" />
            <mxPoint x="2265" y="390" as="targetPoint" />
          </mxGeometry>
        </mxCell>
        <mxCell id="cu65qjogsTO9x5spODUh-25" value="" style="endArrow=block;dashed=1;endFill=0;endSize=12;html=1;rounded=0;exitX=0.5;exitY=0;exitDx=0;exitDy=0;entryX=0.5;entryY=1;entryDx=0;entryDy=0;edgeStyle=orthogonalEdgeStyle;fillColor=#CDA2BE;" parent="WIyWlLk6GJQsqaUBKTNV-1" source="cu65qjogsTO9x5spODUh-15" target="cu65qjogsTO9x5spODUh-12" edge="1">
          <mxGeometry width="160" relative="1" as="geometry">
            <mxPoint x="2165" y="540" as="sourcePoint" />
            <mxPoint x="2275" y="400" as="targetPoint" />
          </mxGeometry>
        </mxCell>
        <mxCell id="cu65qjogsTO9x5spODUh-26" value="" style="endArrow=block;dashed=1;endFill=0;endSize=12;html=1;rounded=0;exitX=0.5;exitY=0;exitDx=0;exitDy=0;entryX=0.5;entryY=1;entryDx=0;entryDy=0;edgeStyle=orthogonalEdgeStyle;fillColor=#CDA2BE;" parent="WIyWlLk6GJQsqaUBKTNV-1" source="cu65qjogsTO9x5spODUh-19" target="cu65qjogsTO9x5spODUh-12" edge="1">
          <mxGeometry width="160" relative="1" as="geometry">
            <mxPoint x="2175" y="550" as="sourcePoint" />
            <mxPoint x="2285" y="410" as="targetPoint" />
          </mxGeometry>
        </mxCell>
        <mxCell id="cu65qjogsTO9x5spODUh-27" value="" style="endArrow=block;endSize=10;endFill=0;shadow=0;strokeWidth=1;rounded=0;edgeStyle=elbowEdgeStyle;elbow=vertical;exitX=0.5;exitY=0;exitDx=0;exitDy=0;entryX=0.5;entryY=1;entryDx=0;entryDy=0;fillColor=#CDA2BE;" parent="WIyWlLk6GJQsqaUBKTNV-1" source="cu65qjogsTO9x5spODUh-16" target="cu65qjogsTO9x5spODUh-1" edge="1">
          <mxGeometry width="160" relative="1" as="geometry">
            <mxPoint x="1590" y="530" as="sourcePoint" />
            <mxPoint x="1660" y="428" as="targetPoint" />
          </mxGeometry>
        </mxCell>
        <mxCell id="cu65qjogsTO9x5spODUh-28" value="" style="endArrow=block;endSize=10;endFill=0;shadow=0;strokeWidth=1;rounded=0;edgeStyle=elbowEdgeStyle;elbow=vertical;exitX=0.5;exitY=0;exitDx=0;exitDy=0;entryX=0.5;entryY=1;entryDx=0;entryDy=0;fillColor=#CDA2BE;" parent="WIyWlLk6GJQsqaUBKTNV-1" source="cu65qjogsTO9x5spODUh-20" target="cu65qjogsTO9x5spODUh-1" edge="1">
          <mxGeometry width="160" relative="1" as="geometry">
            <mxPoint x="1600" y="540" as="sourcePoint" />
            <mxPoint x="1670" y="438" as="targetPoint" />
          </mxGeometry>
        </mxCell>
        <mxCell id="cu65qjogsTO9x5spODUh-29" value="" style="endArrow=block;dashed=1;endFill=0;endSize=12;html=1;rounded=0;exitX=1;exitY=0.5;exitDx=0;exitDy=0;entryX=0;entryY=0.5;entryDx=0;entryDy=0;fillColor=#CDA2BE;" parent="WIyWlLk6GJQsqaUBKTNV-1" source="cu65qjogsTO9x5spODUh-3" target="cu65qjogsTO9x5spODUh-12" edge="1">
          <mxGeometry width="160" relative="1" as="geometry">
            <mxPoint x="1850" y="510" as="sourcePoint" />
            <mxPoint x="2010" y="510" as="targetPoint" />
          </mxGeometry>
        </mxCell>
        <mxCell id="cu65qjogsTO9x5spODUh-30" value="&lt;u&gt;&lt;font style=&quot;font-size: 24px&quot;&gt;Victim UML&lt;/font&gt;&lt;/u&gt;" style="text;html=1;align=center;verticalAlign=middle;resizable=0;points=[];autosize=1;strokeColor=none;fillColor=#CDA2BE;" parent="WIyWlLk6GJQsqaUBKTNV-1" vertex="1">
          <mxGeometry x="1870" y="200" width="140" height="20" as="geometry" />
        </mxCell>
        <mxCell id="cu65qjogsTO9x5spODUh-31" value="&lt;b&gt;Factory Method&lt;/b&gt;" style="text;html=1;align=center;verticalAlign=middle;resizable=0;points=[];autosize=1;strokeColor=none;fillColor=#CDA2BE;" parent="WIyWlLk6GJQsqaUBKTNV-1" vertex="1">
          <mxGeometry x="1940" y="380" width="100" height="20" as="geometry" />
        </mxCell>
        <mxCell id="Ef21p8ou-e0MSYGPzIPS-20" value="" style="rounded=0;whiteSpace=wrap;html=1;fillColor=#E6D0DE;" vertex="1" parent="WIyWlLk6GJQsqaUBKTNV-1">
          <mxGeometry x="900" y="660" width="540" height="450" as="geometry" />
        </mxCell>
        <mxCell id="Ef21p8ou-e0MSYGPzIPS-21" value="Victim" style="swimlane;fontStyle=1;align=center;verticalAlign=top;childLayout=stackLayout;horizontal=1;startSize=26;horizontalStack=0;resizeParent=1;resizeParentMax=0;resizeLast=0;collapsible=1;marginBottom=0;" vertex="1" parent="WIyWlLk6GJQsqaUBKTNV-1">
          <mxGeometry x="960" y="680" width="160" height="94" as="geometry" />
        </mxCell>
        <mxCell id="Ef21p8ou-e0MSYGPzIPS-22" value="+ attack: String&#xa;+ profile: String" style="text;strokeColor=none;fillColor=none;align=left;verticalAlign=top;spacingLeft=4;spacingRight=4;overflow=hidden;rotatable=0;points=[[0,0.5],[1,0.5]];portConstraint=eastwest;" vertex="1" parent="Ef21p8ou-e0MSYGPzIPS-21">
          <mxGeometry y="26" width="160" height="34" as="geometry" />
        </mxCell>
        <mxCell id="Ef21p8ou-e0MSYGPzIPS-23" value="" style="line;strokeWidth=1;fillColor=none;align=left;verticalAlign=middle;spacingTop=-1;spacingLeft=3;spacingRight=3;rotatable=0;labelPosition=right;points=[];portConstraint=eastwest;" vertex="1" parent="Ef21p8ou-e0MSYGPzIPS-21">
          <mxGeometry y="60" width="160" height="8" as="geometry" />
        </mxCell>
        <mxCell id="Ef21p8ou-e0MSYGPzIPS-24" value="+ createVictim(): Boolean" style="text;strokeColor=none;fillColor=none;align=left;verticalAlign=top;spacingLeft=4;spacingRight=4;overflow=hidden;rotatable=0;points=[[0,0.5],[1,0.5]];portConstraint=eastwest;" vertex="1" parent="Ef21p8ou-e0MSYGPzIPS-21">
          <mxGeometry y="68" width="160" height="26" as="geometry" />
        </mxCell>
        <mxCell id="Ef21p8ou-e0MSYGPzIPS-25" value="VictimScript" style="swimlane;fontStyle=0;childLayout=stackLayout;horizontal=1;startSize=26;fillColor=none;horizontalStack=0;resizeParent=1;resizeParentMax=0;resizeLast=0;collapsible=1;marginBottom=0;" vertex="1" parent="WIyWlLk6GJQsqaUBKTNV-1">
          <mxGeometry x="970" y="930" width="140" height="52" as="geometry" />
        </mxCell>
        <mxCell id="Ef21p8ou-e0MSYGPzIPS-26" value="+ construct()" style="text;strokeColor=none;fillColor=none;align=left;verticalAlign=top;spacingLeft=4;spacingRight=4;overflow=hidden;rotatable=0;points=[[0,0.5],[1,0.5]];portConstraint=eastwest;" vertex="1" parent="Ef21p8ou-e0MSYGPzIPS-25">
          <mxGeometry y="26" width="140" height="26" as="geometry" />
        </mxCell>
        <mxCell id="Ef21p8ou-e0MSYGPzIPS-27" value="&lt;p style=&quot;margin: 0px ; margin-top: 4px ; text-align: center&quot;&gt;&lt;i&gt;&amp;lt;&amp;lt;JUnitTestCase&amp;gt;&amp;gt;&lt;/i&gt;&lt;br&gt;&lt;b&gt;VictimScriptTest&lt;/b&gt;&lt;/p&gt;&lt;hr size=&quot;1&quot;&gt;&lt;p style=&quot;margin: 0px ; margin-left: 4px&quot;&gt;+ browser: GoogleChrome&lt;/p&gt;&lt;p style=&quot;margin: 0px ; margin-left: 4px&quot;&gt;+ operation: GoogleChromeOperations&lt;/p&gt;&lt;p style=&quot;margin: 0px ; margin-left: 4px&quot;&gt;+ victim: VictimFactory&lt;/p&gt;&lt;hr size=&quot;1&quot;&gt;&lt;p style=&quot;margin: 0px ; margin-left: 4px&quot;&gt;+ createScript(): @BeforeAll&lt;/p&gt;&lt;p style=&quot;margin: 0px ; margin-left: 4px&quot;&gt;+ stopScript(): @AfterAll&lt;/p&gt;&lt;p style=&quot;margin: 0px ; margin-left: 4px&quot;&gt;+ VictimTest(): @Test&lt;br&gt;&lt;br&gt;&lt;/p&gt;" style="verticalAlign=top;align=left;overflow=fill;fontSize=12;fontFamily=Helvetica;html=1;" vertex="1" parent="WIyWlLk6GJQsqaUBKTNV-1">
          <mxGeometry x="1185" y="930" width="215" height="150" as="geometry" />
        </mxCell>
        <mxCell id="Ef21p8ou-e0MSYGPzIPS-28" value="VictimFactory" style="swimlane;fontStyle=1;align=center;verticalAlign=top;childLayout=stackLayout;horizontal=1;startSize=26;horizontalStack=0;resizeParent=1;resizeParentMax=0;resizeLast=0;collapsible=1;marginBottom=0;" vertex="1" parent="WIyWlLk6GJQsqaUBKTNV-1">
          <mxGeometry x="1180" y="680" width="190" height="124" as="geometry" />
        </mxCell>
        <mxCell id="Ef21p8ou-e0MSYGPzIPS-29" value="+ ssh: SSHBruteForceVictim&#xa;+ mitm: MITMVictim&#xa;+ dos: DOSVictim&#xa;+ xss: XSSVictim&#xa;" style="text;strokeColor=none;fillColor=none;align=left;verticalAlign=top;spacingLeft=4;spacingRight=4;overflow=hidden;rotatable=0;points=[[0,0.5],[1,0.5]];portConstraint=eastwest;" vertex="1" parent="Ef21p8ou-e0MSYGPzIPS-28">
          <mxGeometry y="26" width="190" height="64" as="geometry" />
        </mxCell>
        <mxCell id="Ef21p8ou-e0MSYGPzIPS-30" value="" style="line;strokeWidth=1;fillColor=none;align=left;verticalAlign=middle;spacingTop=-1;spacingLeft=3;spacingRight=3;rotatable=0;labelPosition=right;points=[];portConstraint=eastwest;" vertex="1" parent="Ef21p8ou-e0MSYGPzIPS-28">
          <mxGeometry y="90" width="190" height="8" as="geometry" />
        </mxCell>
        <mxCell id="Ef21p8ou-e0MSYGPzIPS-31" value="+ createVictim(String): boolean" style="text;strokeColor=none;fillColor=none;align=left;verticalAlign=top;spacingLeft=4;spacingRight=4;overflow=hidden;rotatable=0;points=[[0,0.5],[1,0.5]];portConstraint=eastwest;" vertex="1" parent="Ef21p8ou-e0MSYGPzIPS-28">
          <mxGeometry y="98" width="190" height="26" as="geometry" />
        </mxCell>
        <mxCell id="Ef21p8ou-e0MSYGPzIPS-32" value="Extends" style="endArrow=block;endSize=16;endFill=0;html=1;rounded=0;exitX=0.5;exitY=0;exitDx=0;exitDy=0;entryX=0.519;entryY=1;entryDx=0;entryDy=0;entryPerimeter=0;" edge="1" parent="WIyWlLk6GJQsqaUBKTNV-1" source="Ef21p8ou-e0MSYGPzIPS-25" target="Ef21p8ou-e0MSYGPzIPS-24">
          <mxGeometry width="160" relative="1" as="geometry">
            <mxPoint x="1090" y="950" as="sourcePoint" />
            <mxPoint x="1250" y="950" as="targetPoint" />
          </mxGeometry>
        </mxCell>
        <mxCell id="Ef21p8ou-e0MSYGPzIPS-33" value="" style="endArrow=block;dashed=1;endFill=0;endSize=12;html=1;rounded=0;entryX=1;entryY=0.5;entryDx=0;entryDy=0;exitX=-0.005;exitY=0.163;exitDx=0;exitDy=0;exitPerimeter=0;" edge="1" parent="WIyWlLk6GJQsqaUBKTNV-1" source="Ef21p8ou-e0MSYGPzIPS-27" target="Ef21p8ou-e0MSYGPzIPS-25">
          <mxGeometry width="160" relative="1" as="geometry">
            <mxPoint x="1090" y="950" as="sourcePoint" />
            <mxPoint x="1250" y="950" as="targetPoint" />
          </mxGeometry>
        </mxCell>
        <mxCell id="Ef21p8ou-e0MSYGPzIPS-34" value="Invokes" style="endArrow=open;endSize=12;dashed=1;html=1;rounded=0;entryX=0.586;entryY=1.115;entryDx=0;entryDy=0;entryPerimeter=0;" edge="1" parent="WIyWlLk6GJQsqaUBKTNV-1" target="Ef21p8ou-e0MSYGPzIPS-31">
          <mxGeometry width="160" relative="1" as="geometry">
            <mxPoint x="1293" y="930" as="sourcePoint" />
            <mxPoint x="1250" y="950" as="targetPoint" />
          </mxGeometry>
        </mxCell>
        <mxCell id="Ef21p8ou-e0MSYGPzIPS-35" value="&lt;b&gt;Abstract Factory Method&lt;/b&gt;" style="text;html=1;align=center;verticalAlign=middle;resizable=0;points=[];autosize=1;strokeColor=none;fillColor=none;" vertex="1" parent="WIyWlLk6GJQsqaUBKTNV-1">
          <mxGeometry x="1080" y="860" width="160" height="20" as="geometry" />
        </mxCell>
        <mxCell id="Ef21p8ou-e0MSYGPzIPS-37" value="" style="rounded=0;whiteSpace=wrap;html=1;fillColor=#E6D0DE;" vertex="1" parent="WIyWlLk6GJQsqaUBKTNV-1">
          <mxGeometry x="330" y="660" width="540" height="450" as="geometry" />
        </mxCell>
        <mxCell id="Ef21p8ou-e0MSYGPzIPS-38" value="Attacker" style="swimlane;fontStyle=1;align=center;verticalAlign=top;childLayout=stackLayout;horizontal=1;startSize=26;horizontalStack=0;resizeParent=1;resizeParentMax=0;resizeLast=0;collapsible=1;marginBottom=0;" vertex="1" parent="WIyWlLk6GJQsqaUBKTNV-1">
          <mxGeometry x="390" y="680" width="160" height="94" as="geometry" />
        </mxCell>
        <mxCell id="Ef21p8ou-e0MSYGPzIPS-39" value="+ attack: String&#xa;+ profile: String" style="text;strokeColor=none;fillColor=none;align=left;verticalAlign=top;spacingLeft=4;spacingRight=4;overflow=hidden;rotatable=0;points=[[0,0.5],[1,0.5]];portConstraint=eastwest;" vertex="1" parent="Ef21p8ou-e0MSYGPzIPS-38">
          <mxGeometry y="26" width="160" height="34" as="geometry" />
        </mxCell>
        <mxCell id="Ef21p8ou-e0MSYGPzIPS-40" value="" style="line;strokeWidth=1;fillColor=none;align=left;verticalAlign=middle;spacingTop=-1;spacingLeft=3;spacingRight=3;rotatable=0;labelPosition=right;points=[];portConstraint=eastwest;" vertex="1" parent="Ef21p8ou-e0MSYGPzIPS-38">
          <mxGeometry y="60" width="160" height="8" as="geometry" />
        </mxCell>
        <mxCell id="Ef21p8ou-e0MSYGPzIPS-41" value="+ createAttacker(): Boolean" style="text;strokeColor=none;fillColor=none;align=left;verticalAlign=top;spacingLeft=4;spacingRight=4;overflow=hidden;rotatable=0;points=[[0,0.5],[1,0.5]];portConstraint=eastwest;" vertex="1" parent="Ef21p8ou-e0MSYGPzIPS-38">
          <mxGeometry y="68" width="160" height="26" as="geometry" />
        </mxCell>
        <mxCell id="Ef21p8ou-e0MSYGPzIPS-42" value="AttackerScript" style="swimlane;fontStyle=0;childLayout=stackLayout;horizontal=1;startSize=26;fillColor=none;horizontalStack=0;resizeParent=1;resizeParentMax=0;resizeLast=0;collapsible=1;marginBottom=0;" vertex="1" parent="WIyWlLk6GJQsqaUBKTNV-1">
          <mxGeometry x="400" y="930" width="140" height="52" as="geometry" />
        </mxCell>
        <mxCell id="Ef21p8ou-e0MSYGPzIPS-43" value="+ construct()" style="text;strokeColor=none;fillColor=none;align=left;verticalAlign=top;spacingLeft=4;spacingRight=4;overflow=hidden;rotatable=0;points=[[0,0.5],[1,0.5]];portConstraint=eastwest;" vertex="1" parent="Ef21p8ou-e0MSYGPzIPS-42">
          <mxGeometry y="26" width="140" height="26" as="geometry" />
        </mxCell>
        <mxCell id="Ef21p8ou-e0MSYGPzIPS-44" value="&lt;p style=&quot;margin: 0px ; margin-top: 4px ; text-align: center&quot;&gt;&lt;i&gt;&amp;lt;&amp;lt;JUnitTestCase&amp;gt;&amp;gt;&lt;/i&gt;&lt;br&gt;&lt;b&gt;AttackerScriptTest&lt;/b&gt;&lt;/p&gt;&lt;hr size=&quot;1&quot;&gt;&lt;p style=&quot;margin: 0px ; margin-left: 4px&quot;&gt;+ browser: GoogleChrome&lt;/p&gt;&lt;p style=&quot;margin: 0px ; margin-left: 4px&quot;&gt;+ operation: GoogleChromeOperations&lt;/p&gt;&lt;p style=&quot;margin: 0px ; margin-left: 4px&quot;&gt;+ attacker: VictimFactory&lt;/p&gt;&lt;hr size=&quot;1&quot;&gt;&lt;p style=&quot;margin: 0px ; margin-left: 4px&quot;&gt;+ createScript(): @BeforeAll&lt;/p&gt;&lt;p style=&quot;margin: 0px ; margin-left: 4px&quot;&gt;+ stopScript(): @AfterAll&lt;/p&gt;&lt;p style=&quot;margin: 0px ; margin-left: 4px&quot;&gt;+ AttackerTest(): @Test&lt;br&gt;&lt;br&gt;&lt;/p&gt;" style="verticalAlign=top;align=left;overflow=fill;fontSize=12;fontFamily=Helvetica;html=1;" vertex="1" parent="WIyWlLk6GJQsqaUBKTNV-1">
          <mxGeometry x="615" y="930" width="215" height="150" as="geometry" />
        </mxCell>
        <mxCell id="Ef21p8ou-e0MSYGPzIPS-45" value="AttackerFactory" style="swimlane;fontStyle=1;align=center;verticalAlign=top;childLayout=stackLayout;horizontal=1;startSize=26;horizontalStack=0;resizeParent=1;resizeParentMax=0;resizeLast=0;collapsible=1;marginBottom=0;" vertex="1" parent="WIyWlLk6GJQsqaUBKTNV-1">
          <mxGeometry x="610" y="680" width="190" height="124" as="geometry" />
        </mxCell>
        <mxCell id="Ef21p8ou-e0MSYGPzIPS-46" value="+ ssh: SSHBruteForceAttacker&#xa;+ mitm: MITMAttacker&#xa;+ dos: DOSAttacker&#xa;+ xss: XSSAttacker&#xa;" style="text;strokeColor=none;fillColor=none;align=left;verticalAlign=top;spacingLeft=4;spacingRight=4;overflow=hidden;rotatable=0;points=[[0,0.5],[1,0.5]];portConstraint=eastwest;" vertex="1" parent="Ef21p8ou-e0MSYGPzIPS-45">
          <mxGeometry y="26" width="190" height="64" as="geometry" />
        </mxCell>
        <mxCell id="Ef21p8ou-e0MSYGPzIPS-47" value="" style="line;strokeWidth=1;fillColor=none;align=left;verticalAlign=middle;spacingTop=-1;spacingLeft=3;spacingRight=3;rotatable=0;labelPosition=right;points=[];portConstraint=eastwest;" vertex="1" parent="Ef21p8ou-e0MSYGPzIPS-45">
          <mxGeometry y="90" width="190" height="8" as="geometry" />
        </mxCell>
        <mxCell id="Ef21p8ou-e0MSYGPzIPS-48" value="+ createAttacker(String): boolean" style="text;strokeColor=none;fillColor=none;align=left;verticalAlign=top;spacingLeft=4;spacingRight=4;overflow=hidden;rotatable=0;points=[[0,0.5],[1,0.5]];portConstraint=eastwest;" vertex="1" parent="Ef21p8ou-e0MSYGPzIPS-45">
          <mxGeometry y="98" width="190" height="26" as="geometry" />
        </mxCell>
        <mxCell id="Ef21p8ou-e0MSYGPzIPS-49" value="Extends" style="endArrow=block;endSize=16;endFill=0;html=1;rounded=0;exitX=0.5;exitY=0;exitDx=0;exitDy=0;entryX=0.519;entryY=1;entryDx=0;entryDy=0;entryPerimeter=0;" edge="1" parent="WIyWlLk6GJQsqaUBKTNV-1" source="Ef21p8ou-e0MSYGPzIPS-42" target="Ef21p8ou-e0MSYGPzIPS-41">
          <mxGeometry width="160" relative="1" as="geometry">
            <mxPoint x="520" y="950" as="sourcePoint" />
            <mxPoint x="680" y="950" as="targetPoint" />
          </mxGeometry>
        </mxCell>
        <mxCell id="Ef21p8ou-e0MSYGPzIPS-50" value="" style="endArrow=block;dashed=1;endFill=0;endSize=12;html=1;rounded=0;entryX=1;entryY=0.5;entryDx=0;entryDy=0;exitX=-0.005;exitY=0.163;exitDx=0;exitDy=0;exitPerimeter=0;" edge="1" parent="WIyWlLk6GJQsqaUBKTNV-1" source="Ef21p8ou-e0MSYGPzIPS-44" target="Ef21p8ou-e0MSYGPzIPS-42">
          <mxGeometry width="160" relative="1" as="geometry">
            <mxPoint x="520" y="950" as="sourcePoint" />
            <mxPoint x="680" y="950" as="targetPoint" />
          </mxGeometry>
        </mxCell>
        <mxCell id="Ef21p8ou-e0MSYGPzIPS-51" value="Invokes" style="endArrow=open;endSize=12;dashed=1;html=1;rounded=0;entryX=0.586;entryY=1.115;entryDx=0;entryDy=0;entryPerimeter=0;" edge="1" parent="WIyWlLk6GJQsqaUBKTNV-1" target="Ef21p8ou-e0MSYGPzIPS-48">
          <mxGeometry width="160" relative="1" as="geometry">
            <mxPoint x="723" y="930" as="sourcePoint" />
            <mxPoint x="680" y="950" as="targetPoint" />
          </mxGeometry>
        </mxCell>
        <mxCell id="Ef21p8ou-e0MSYGPzIPS-52" value="&lt;b&gt;Abstract Factory Method&lt;/b&gt;" style="text;html=1;align=center;verticalAlign=middle;resizable=0;points=[];autosize=1;strokeColor=none;fillColor=none;" vertex="1" parent="WIyWlLk6GJQsqaUBKTNV-1">
          <mxGeometry x="510" y="860" width="160" height="20" as="geometry" />
        </mxCell>
      </root>
    </mxGraphModel>
  </diagram>
</mxfile>
